<?xml version="1.0" standalone="no"?>
<!DOCTYPE svg PUBLIC "-//W3C//DTD SVG 20010904//EN"
 "http://www.w3.org/TR/2001/REC-SVG-20010904/DTD/svg10.dtd">
<svg version="1.0" xmlns="http://www.w3.org/2000/svg"
 width="192.000000pt" height="192.000000pt" viewBox="0 0 192.000000 192.000000"
 preserveAspectRatio="xMidYMid meet">

<g transform="translate(0.000000,192.000000) scale(0.100000,-0.100000)"
fill="#000000" stroke="none">
<path d="M795 1765 c-55 -54 -1 -170 64 -136 45 25 46 127 1 151 -28 15 -38
12 -65 -15z"/>
<path d="M1096 1758 c-33 -47 -3 -138 44 -138 26 0 60 47 60 84 0 45 -25 76
-60 76 -18 0 -34 -8 -44 -22z"/>
<path d="M1040 1707 c0 -9 -11 -29 -24 -44 -20 -23 -28 -26 -43 -17 -10 6 -24
22 -30 35 -8 15 -13 18 -13 8 0 -17 36 -59 51 -59 32 0 84 69 65 87 -3 3 -6
-1 -6 -10z"/>
<path d="M622 1698 c-22 -22 -12 -54 37 -125 54 -77 93 -113 122 -113 18 0 19
-13 19 -242 0 -134 4 -249 9 -256 4 -8 19 -12 32 -10 l24 3 8 250 c5 138 10
251 12 253 1 1 16 4 34 5 42 3 39 17 -4 17 -33 0 -35 2 -35 35 0 32 -3 35 -29
35 -58 0 -88 20 -140 91 -51 69 -67 79 -89 57z"/>
<path d="M1261 1631 c-28 -38 -58 -72 -67 -75 -9 -3 -49 -6 -89 -6 l-73 0 -4
-45 -3 -45 37 0 38 0 0 -243 c0 -251 2 -267 41 -267 28 0 33 18 30 115 -1 49
1 159 5 242 6 148 7 153 28 153 26 0 67 41 125 126 36 53 40 64 32 87 -17 45
-44 34 -100 -42z"/>
<path d="M1010 971 c0 -9 -9 -12 -25 -9 -13 3 -22 1 -19 -3 7 -13 42 -11 49 2
4 6 4 13 1 16 -3 4 -6 1 -6 -6z"/>
<path d="M344 890 c-62 -14 -121 -69 -156 -145 -20 -44 -23 -65 -23 -170 1
-136 15 -182 80 -253 46 -51 90 -72 155 -72 65 0 112 22 150 70 35 45 36 51
10 68 -18 11 -24 8 -51 -23 -89 -101 -226 -50 -274 101 -25 81 -17 194 19 267
55 113 179 138 255 52 27 -31 33 -34 51 -23 29 18 25 31 -24 76 -59 55 -117
70 -192 52z"/>
<path d="M726 885 c-58 -20 -87 -45 -123 -105 -86 -142 -62 -375 49 -476 48
-43 76 -54 135 -54 128 0 221 115 239 296 l7 63 36 -24 c20 -13 68 -33 107
-44 115 -31 134 -47 134 -116 0 -111 -109 -150 -236 -85 -32 16 -60 30 -61 30
-1 0 -7 -9 -13 -21 -15 -28 5 -50 73 -79 42 -18 64 -22 124 -18 97 7 138 37
168 123 7 20 7 20 18 1 25 -41 79 -95 111 -110 79 -37 185 -11 244 60 52 63
76 144 75 253 -1 179 -71 288 -201 316 -136 29 -272 -121 -272 -300 0 -56 -8
-67 -30 -41 -6 8 -56 29 -111 46 -75 23 -103 37 -116 56 -22 34 -22 103 -1
137 34 51 144 59 215 15 l33 -19 12 25 c14 33 -3 49 -81 72 -121 36 -251 -30
-251 -128 0 -16 -4 -28 -10 -28 -5 0 -10 9 -10 20 0 32 -98 126 -145 139 -51
14 -71 13 -119 -4z m103 -55 c97 -27 155 -167 131 -315 -21 -134 -71 -195
-164 -203 -41 -3 -58 1 -86 20 -87 58 -127 245 -80 370 25 66 67 114 113 127
43 12 47 12 86 1z m793 0 c134 -38 179 -317 73 -456 -35 -46 -100 -69 -152
-55 -51 14 -107 74 -125 133 -21 70 -17 214 8 268 26 56 67 97 108 109 42 12
46 12 88 1z"/>
<path d="M734 806 c-65 -29 -108 -117 -108 -226 0 -85 25 -158 70 -201 31 -30
41 -34 87 -34 89 0 147 65 162 183 l7 52 -81 0 -81 0 0 120 c0 130 0 130 -56
106z"/>
</g>
</svg>
